<svg id="Layer_1" data-name="Layer 1" xmlns="http://www.w3.org/2000/svg" viewBox="0 0 488 171"><title>4gm_logo</title><path d="M479.46,171a8.53,8.53,0,0,1-8.4-7.13L450,37.52l-43.52,93.3a8.53,8.53,0,0,1-15.45,0l-43-92.15-17.61,125a8.53,8.53,0,0,1-14.28,5L288.83,143c-12.8,18.18-33.22,28-60,28-25.37,0-50.9-12.37-64.7-39.07L127,168.54a8.53,8.53,0,0,1-14.52-6.07V28.63L31.41,98h61a8.53,8.53,0,1,1,0,17.05h-84a8.53,8.53,0,0,1-5.54-15L115.48,3.64a8.53,8.53,0,0,1,14.07,6.48v132l27.88-27.52A116.92,116.92,0,0,1,153.65,84c0-49.19,33.52-83.55,81.52-83.55a78.37,78.37,0,0,1,37.09,9.21,8.53,8.53,0,0,1,1.94,13.57l-97,95.73c8.05,19.55,24.16,35,51.6,35,22.13,0,38-7.57,47.61-22.58L233.51,91.08a8.53,8.53,0,0,1,5.83-14.74h56.44a8.53,8.53,0,0,1,8.53,8.53c0,16.34-2.45,30.6-7.17,42.57L315.86,145,335.19,7.81A8.53,8.53,0,0,1,351.36,5.4L398.77,107,446.19,5.4a8.53,8.53,0,0,1,16.14,2.2l25.56,153.47a8.54,8.54,0,0,1-8.42,9.93ZM260.88,93.39l22.76,21.37A101.08,101.08,0,0,0,287,93.39ZM235.17,17.53c-38.56,0-64.47,26.72-64.47,66.5A101.09,101.09,0,0,0,172,100.19L253.1,20.13A62.66,62.66,0,0,0,235.17,17.53Z"/></svg>